<?xml version="1.0" encoding="UTF-8" standalone="no"?>
<svg
   version="1.1"
   stroke="black"
   stroke-linejoin="round"
   stroke-width="0.5" fill='#d91218'
   viewBox='415 217 498 63'
   xmlns="http://www.w3.org/2000/svg"
   xmlns:svg="http://www.w3.org/2000/svg">
  <path
     d="M 459.8148193359375 244.4668426513672 L 459.8148193359375 255.5331573486328 L 470.33953857421875 255.5331573486328 L 470.33953857421875 244.4668426513672  z"
     id="path210" />
  <path
     d="M 429.3848876953125 250 L 429.458984375 244.44664001464844 L 429.4384460449219 241.020751953125 L 429.31890869140625 250  z"
     id="path216" />
  <path
     d="M 429.3848876953125 250 L 429.31890869140625 250 L 429.4384460449219 258.979248046875 L 429.458984375 255.55335998535156  z"
     id="path218" />
  <path
     d="M 418.1608581542969 250 L 418.2066345214844 255.55335998535156 L 418.2812805175781 253.44622802734375 L 418.2812805175781 246.55377197265625 L 418.2066345214844 244.44664001464844  z"
     id="path224" />
  <path
     d="M 429.458984375 255.55335998535156 L 429.5796813964844 253.44622802734375 L 418.2812805175781 253.44622802734375 L 418.2066345214844 255.55335998535156  z"
     id="path226" />
  <path
     d="M 418.2066345214844 244.44664001464844 L 418.2812805175781 246.55377197265625 L 429.5796813964844 246.55377197265625 L 429.458984375 244.44664001464844  z"
     id="path228" />
  <path
     d="M 429.6340026855469 244.4136505126953 L 429.4384460449219 241.020751953125 L 429.458984375 244.44664001464844 L 429.5796813964844 246.55377197265625  z"
     id="path230" />
  <path
     d="M 429.458984375 255.55335998535156 L 429.4384460449219 258.979248046875 L 429.6340026855469 255.5863494873047 L 429.5796813964844 253.44622802734375  z"
     id="path232" />
  <path
     d="m 459.62398,240.93179 -30.24165,0.034 0.073,3.50396 z"
     id="path234"
     style="stroke-width:0.387783" />
  <path
     d="m 429.52937,255.55614 -0.0733,3.45274 30.34107,0.0335 z"
     id="path236"
     style="stroke-width:0.385571" />
  <path
     d="M 471.44659423828125 244.43408203125 L 460.1688232421875 244.43408203125 L 460.3213195800781 250 L 471.6276550292969 250  z"
     id="path238" />
  <path
     d="M 460.3213195800781 250 L 460.1688232421875 255.56591796875 L 471.44659423828125 255.56591796875 L 471.6276550292969 250  z"
     id="path240" />
  <path
     d="M 429.5796813964844 253.44622802734375 L 429.5796813964844 246.55377197265625 L 418.2812805175781 246.55377197265625 L 418.2812805175781 253.44622802734375  z"
     id="path242" />
  <path
     d="M 429.5796813964844 253.44622802734375 L 429.6340026855469 255.5863494873047 L 429.6340026855469 244.4136505126953 L 429.5796813964844 246.55377197265625  z"
     id="path244" />
  <path
     d="m 459.87199,249.94251 -30.49119,5.65762 30.32084,3.46948 z"
     id="path246"
     style="stroke-width:0.384982" />
  <path
     d="m 459.70161,240.93037 -30.32081,3.46949 30.49115,5.65763 z"
     id="path248"
     style="stroke-width:0.384982" />
  <path
     d="M 459.81482,250 429.634,244.41365 v 11.1727 z"
     id="path250"
     style="stroke-width:0.380598" />
</svg>
